<?xml version="1.0" encoding="UTF-8"?>
<!DOCTYPE svg PUBLIC "-//W3C//DTD SVG 1.1//EN" "http://www.w3.org/Graphics/SVG/1.1/DTD/svg11.dtd">
<svg version="1.1" xmlns="http://www.w3.org/2000/svg" xmlns:xlink="http://www.w3.org/1999/xlink" x="0" y="0" width="821" height="45" viewBox="0, 0, 821, 45">
  <g id="Layer_1">
    <g>
      <path d="M0.348,34.289 C2.56,42.105 8.312,44.908 16.866,44.908 C26.083,44.908 33.752,41.442 33.752,32.003 C33.752,23.67 29.107,20.573 19.963,17.697 C14.875,16.149 12.515,14.969 12.515,11.945 C12.515,9.143 14.727,7.89 17.529,7.89 C20.553,7.89 23.429,9.586 23.797,13.42 L33.752,10.913 C32.867,2.654 26.231,-0.369 17.308,-0.369 C9.713,-0.369 2.044,2.875 2.044,12.683 C2.044,20.131 6.173,23.891 16.128,27.062 C21.806,28.832 23.355,30.159 23.355,32.962 C23.355,35.911 20.921,37.238 17.603,37.238 C13.474,37.238 10.303,34.51 9.492,30.233 z" fill="#7C7C7C"/>
      <path d="M72.761,29.864 C70.844,34.068 67.673,36.059 63.691,36.059 C56.538,36.059 52.999,31.044 52.999,22.49 C52.999,13.789 56.981,8.553 63.544,8.553 C68.263,8.553 70.623,11.134 71.95,15.411 L81.61,10.692 C78.439,3.76 72.835,-0.296 63.912,-0.296 C50.639,-0.296 42.675,7.816 42.675,22.269 C42.675,36.722 50.787,44.908 62.585,44.908 C72.245,44.908 77.333,41.663 81.242,34.953 z" fill="#7C7C7C"/>
      <path d="M109.411,44.908 C122.242,44.908 130.058,36.87 130.058,22.343 C130.058,7.742 122.242,-0.296 109.411,-0.296 C96.58,-0.296 88.837,7.742 88.837,22.343 C88.837,36.87 96.58,44.908 109.411,44.908 z M109.411,8.627 C116.269,8.627 119.661,13.863 119.661,22.49 C119.661,31.044 116.269,36.28 109.411,36.28 C102.553,36.28 99.234,31.044 99.234,22.49 C99.234,13.863 102.626,8.627 109.411,8.627 z" fill="#7C7C7C"/>
      <path d="M157.047,44.023 L157.047,9.291 L169.141,9.291 L169.141,0.589 L135.294,0.589 L135.294,9.291 L147.166,9.291 L147.166,44.023 z" fill="#7C7C7C"/>
      <path d="M174.45,34.289 C176.662,42.105 182.414,44.908 190.968,44.908 C200.186,44.908 207.855,41.442 207.855,32.003 C207.855,23.67 203.209,20.573 194.065,17.697 C188.977,16.149 186.617,14.969 186.617,11.945 C186.617,9.143 188.83,7.89 191.632,7.89 C194.655,7.89 197.531,9.586 197.9,13.42 L207.855,10.913 C206.97,2.654 200.333,-0.369 191.411,-0.369 C183.815,-0.369 176.146,2.875 176.146,12.683 C176.146,20.131 180.276,23.891 190.231,27.062 C195.909,28.832 197.457,30.159 197.457,32.962 C197.457,35.911 195.024,37.238 191.706,37.238 C187.576,37.238 184.405,34.51 183.594,30.233 z" fill="#7C7C7C"/>
      <path d="M243.398,33.994 L249.445,24.039 C251.657,20.426 252.689,17.402 252.689,17.402 L252.984,17.402 C252.984,17.402 252.616,19.836 252.616,24.776 L252.616,44.023 L262.571,44.023 L262.571,0.589 L252.542,0.589 L244.283,15.264 C241.849,19.541 241.186,21.605 241.186,21.605 L240.891,21.605 C240.891,21.605 240.301,19.541 237.794,15.264 L229.608,0.589 L219.432,0.589 L219.432,44.023 L229.461,44.023 L229.461,24.776 C229.461,19.836 229.019,17.402 229.019,17.402 L229.313,17.402 C229.313,17.402 230.346,20.426 232.632,24.039 L238.605,33.994 z" fill="#7C7C7C"/>
      <path d="M305.119,44.023 L315.885,44.023 L300.031,0.589 L287.643,0.589 L271.936,44.023 L282.407,44.023 L285.504,34.953 L301.948,34.953 z M290.002,21.679 C292.436,14.674 293.542,9.364 293.542,9.364 L293.837,9.364 C293.837,9.364 294.722,14.6 297.229,21.753 L298.999,26.62 L288.306,26.62 z" fill="#7C7C7C"/>
      <path d="M334.689,0.589 L325.251,0.589 L325.251,44.023 L335.279,44.023 L335.279,26.767 C335.279,20.499 334.837,16.96 334.837,16.96 L335.132,16.96 C335.132,16.96 336.459,19.688 339.261,23.375 L354.599,44.023 L363.743,44.023 L363.743,0.589 L353.715,0.589 L353.715,18.213 C353.715,23.744 353.936,27.431 353.936,27.431 L353.641,27.431 C353.641,27.431 352.461,24.924 350.028,21.605 z" fill="#7C7C7C"/>
      <path d="M388.078,44.023 L388.078,28.021 L404.08,28.021 L404.08,19.688 L388.078,19.688 L388.078,9.291 L406.366,9.291 L406.366,0.589 L378.049,0.589 L378.049,44.023 z" fill="#234270"/>
      <path d="M434.977,44.908 C447.808,44.908 455.625,36.87 455.625,22.343 C455.625,7.742 447.808,-0.296 434.977,-0.296 C422.146,-0.296 414.403,7.742 414.403,22.343 C414.403,36.87 422.146,44.908 434.977,44.908 z M434.977,8.627 C441.835,8.627 445.227,13.863 445.227,22.49 C445.227,31.044 441.835,36.28 434.977,36.28 C428.119,36.28 424.801,31.044 424.801,22.49 C424.801,13.863 428.193,8.627 434.977,8.627 z" fill="#234270"/>
      <path d="M485.195,44.908 C498.026,44.908 505.842,36.87 505.842,22.343 C505.842,7.742 498.026,-0.296 485.195,-0.296 C472.364,-0.296 464.621,7.742 464.621,22.343 C464.621,36.87 472.364,44.908 485.195,44.908 z M485.195,8.627 C492.053,8.627 495.445,13.863 495.445,22.49 C495.445,31.044 492.053,36.28 485.195,36.28 C478.337,36.28 475.019,31.044 475.019,22.49 C475.019,13.863 478.411,8.627 485.195,8.627 z" fill="#234270"/>
      <path d="M527.522,35.542 L527.522,9.069 L532.463,9.069 C539.616,9.069 544.188,12.093 544.188,22.417 C544.188,32.298 539.616,35.542 531.873,35.542 z M532.831,44.023 C545.294,44.023 554.659,37.902 554.659,21.827 C554.659,6.562 545.515,0.589 533.495,0.589 L517.493,0.589 L517.493,44.023 z" fill="#234270"/>
      <path d="M622.279,35.542 L622.279,9.069 L627.22,9.069 C634.373,9.069 638.945,12.093 638.945,22.417 C638.945,32.298 634.373,35.542 626.63,35.542 z M627.589,44.023 C640.051,44.023 649.416,37.902 649.416,21.827 C649.416,6.562 640.272,0.589 628.252,0.589 L612.251,0.589 L612.251,44.023 z" fill="#234270"/>
      <path d="M696.315,44.023 C694.914,42.548 694.324,41.073 693.882,39.377 L691.67,31.265 C690.564,27.283 688.425,25.587 684.443,24.924 L684.443,24.776 C690.047,24.186 693.956,20.573 693.956,13.863 C693.956,4.129 687.909,0.589 678.175,0.589 L661.067,0.589 L661.067,44.023 L671.096,44.023 L671.096,28.685 L675.373,28.685 C678.691,28.685 680.387,29.348 681.272,33.035 L682.894,39.524 C683.337,41.368 683.853,42.99 685.18,44.023 z M671.096,9.069 L677.511,9.069 C681.641,9.069 683.706,11.06 683.706,14.747 C683.706,18.877 681.493,20.426 677.511,20.426 L671.096,20.426 z" fill="#234270"/>
      <path d="M706.934,0.589 L706.934,44.023 L716.963,44.023 L716.963,0.589 z" fill="#234270"/>
      <path d="M740.707,0.589 L731.268,0.589 L731.268,44.023 L741.297,44.023 L741.297,26.767 C741.297,20.499 740.855,16.96 740.855,16.96 L741.15,16.96 C741.15,16.96 742.477,19.688 745.279,23.375 L760.617,44.023 L769.761,44.023 L769.761,0.589 L759.733,0.589 L759.733,18.213 C759.733,23.744 759.954,27.431 759.954,27.431 L759.659,27.431 C759.659,27.431 758.479,24.924 756.045,21.605 z" fill="#234270"/>
      <path d="M820.348,44.023 L805.305,21.605 L819.02,0.589 L807.517,0.589 L796.751,17.623 L794.096,17.623 L794.096,0.589 L784.067,0.589 L784.067,44.023 L794.096,44.023 L794.096,26.325 L796.677,26.325 L808.402,44.023 z" fill="#234270"/>
      <g>
        <path d="M582.428,19.903 C582.271,19.687 566.904,3.99 561.661,-0.552 C560.633,-1.442 559.783,-0.665 559.744,-0.616 C557.94,1.692 561.872,7.258 569.283,14.379 C573.258,17.924 575.355,20.482 578.106,20.756 C579.965,20.94 580.574,21.757 580.574,21.757 L580.574,21.759 C583.704,25.005 588.121,29.68 591.278,33.988 C593.675,37.26 596.054,41.42 598.53,43.175 C602.106,45.707 603.57,44.758 604.503,43.825 C605.436,42.893 606.385,41.429 603.852,37.853 C602.098,35.376 597.937,32.997 594.666,30.601 C590.356,27.443 585.681,23.026 582.435,19.896 z" fill="#7C7C7C"/>
        <path d="M559.903,43.731 C565.24,49.077 574.382,32.826 576.728,29.777 C579.818,25.759 584.003,20.743 586.993,17.66 C586.993,17.66 588.154,16.983 589.562,16.755 C590.378,16.622 591.336,16.68 592.352,16.245 C593.36,15.815 594.607,14.243 596.211,12.519 C599.983,8.462 604.788,2.829 604.466,2.555 C604.006,2.164 596.334,10.944 595.506,11.361 C595.376,11.428 595.228,11.351 595.137,11.256 C595.04,11.154 594.969,11.045 595.103,10.86 C595.499,10.314 603.719,1.883 603.327,1.415 C602.974,0.994 595.561,9.104 594.146,9.963 C593.95,10.083 593.776,9.895 593.756,9.876 C593.738,9.856 593.551,9.683 593.67,9.488 C594.53,8.073 602.64,0.66 602.218,0.306 C601.75,-0.086 593.319,8.135 592.773,8.531 C592.589,8.664 592.479,8.594 592.377,8.497 C592.282,8.406 592.206,8.256 592.271,8.127 C592.69,7.299 601.47,-0.372 601.079,-0.832 C600.804,-1.155 595.172,3.651 591.115,7.423 C589.39,9.027 587.818,10.273 587.387,11.281 C586.953,12.297 587.011,13.254 586.878,14.072 C586.651,15.479 585.973,16.639 585.973,16.639 C582.89,19.63 577.875,23.815 573.857,26.907 C570.808,29.252 554.556,38.394 559.903,43.731" fill="#7C7C7C"/>
      </g>
    </g>
  </g>
</svg>
